HIERARCHY
ROOT Hips
{
	OFFSET 1.324476 86.935013 4.250773
	CHANNELS 6 Xposition Yposition Zposition Zrotation Yrotation Xrotation 
	JOINT Spine
	{
		OFFSET 0.000000 8.814246 -2.080107
		CHANNELS 3 Zrotation Yrotation Xrotation
		JOINT Spine1
		{
			OFFSET 0.000000 8.844141 -0.000000
			CHANNELS 3 Zrotation Yrotation Xrotation
			JOINT Spine2
			{
				OFFSET 0.000000 11.682268 0.000000
				CHANNELS 3 Zrotation Yrotation Xrotation
				JOINT Spine3
				{
					OFFSET 0.000000 11.746700 0.000000
					CHANNELS 3 Zrotation Yrotation Xrotation
					JOINT Neck
					{
						OFFSET -0.000000 17.658264 -0.000000
						CHANNELS 3 Zrotation Yrotation Xrotation
						JOINT Neck1
						{
							OFFSET 0.000000 5.101515 -0.000000
							CHANNELS 3 Zrotation Yrotation Xrotation
							JOINT Head
							{
								OFFSET 0.000000 5.101515 0.000000
								CHANNELS 3 Zrotation Yrotation Xrotation
								JOINT HeadEnd
								{
									OFFSET -0.000000 11.655085 0.000000
									CHANNELS 3 Zrotation Yrotation Xrotation
									End Site
									{
										OFFSET 0.000000 0.000000 0.000000
									}
								}
							}
						}
					}
					JOINT RightShoulder
					{
						OFFSET -2.625389 11.175210 -0.000000
						CHANNELS 3 Zrotation Yrotation Xrotation
						JOINT RightArm
						{
							OFFSET -0.000000 10.434715 -0.000000
							CHANNELS 3 Zrotation Yrotation Xrotation
							JOINT RightForeArm
							{
								OFFSET -0.000000 29.628420 -0.000000
								CHANNELS 3 Zrotation Yrotation Xrotation
								JOINT RightHand
								{
									OFFSET -0.000000 22.857611 -0.000000
									CHANNELS 3 Zrotation Yrotation Xrotation
									JOINT RightHandThumb1
									{
										OFFSET -2.867323 3.959563 2.944291
										CHANNELS 3 Zrotation Yrotation Xrotation
										JOINT RightHandThumb2
										{
											OFFSET -0.000000 3.350399 0.000000
											CHANNELS 3 Zrotation Yrotation Xrotation
											JOINT RightHandThumb3
											{
												OFFSET 0.000000 3.756509 -0.000000
												CHANNELS 3 Zrotation Yrotation Xrotation
												JOINT RightHandThumb4
												{
													OFFSET 0.000000 3.147345 -0.000000
													CHANNELS 3 Zrotation Yrotation Xrotation
													End Site
													{
														OFFSET 0.000000 0.000000 0.000000
													}
												}
											}
										}
									}
									JOINT RightHandIndex1
									{
										OFFSET -0.086752 10.030893 2.345280
										CHANNELS 3 Zrotation Yrotation Xrotation
										JOINT RightHandIndex2
										{
											OFFSET -0.000000 4.061090 -0.000000
											CHANNELS 3 Zrotation Yrotation Xrotation
											JOINT RightHandIndex3
											{
												OFFSET 0.000000 3.248873 0.000000
												CHANNELS 3 Zrotation Yrotation Xrotation
												JOINT RightHandIndex4
												{
													OFFSET 0.000000 2.639709 -0.000000
													CHANNELS 3 Zrotation Yrotation Xrotation
													End Site
													{
														OFFSET 0.000000 0.000000 0.000000
													}
												}
											}
										}
									}
									JOINT RightHandMiddle1
									{
										OFFSET 0.104102 9.502952 0.006768
										CHANNELS 3 Zrotation Yrotation Xrotation
										JOINT RightHandMiddle2
										{
											OFFSET 0.000000 4.568727 0.000000
											CHANNELS 3 Zrotation Yrotation Xrotation
											JOINT RightHandMiddle3
											{
												OFFSET 0.000000 3.654981 -0.000000
												CHANNELS 3 Zrotation Yrotation Xrotation
												JOINT RightHandMiddle4
												{
													OFFSET -0.000000 2.741236 -0.000000
													CHANNELS 3 Zrotation Yrotation Xrotation
													End Site
													{
														OFFSET 0.000000 0.000000 0.000000
													}
												}
											}
										}
									}
									JOINT RightHandRing1
									{
										OFFSET 0.086752 8.921708 -2.267442
										CHANNELS 3 Zrotation Yrotation Xrotation
										JOINT RightHandRing2
										{
											OFFSET -0.000000 4.061090 0.000000
											CHANNELS 3 Zrotation Yrotation Xrotation
											JOINT RightHandRing3
											{
												OFFSET -0.000000 3.654981 -0.000000
												CHANNELS 3 Zrotation Yrotation Xrotation
												JOINT RightHandRing4
												{
													OFFSET -0.000000 2.741236 -0.000000
													CHANNELS 3 Zrotation Yrotation Xrotation
													End Site
													{
														OFFSET 0.000000 0.000000 0.000000
													}
												}
											}
										}
									}
									JOINT RightHandPinky1
									{
										OFFSET -0.173504 7.976997 -4.467199
										CHANNELS 3 Zrotation Yrotation Xrotation
										JOINT RightHandPinky2
										{
											OFFSET -0.000000 3.350399 -0.000000
											CHANNELS 3 Zrotation Yrotation Xrotation
											JOINT RightHandPinky3
											{
												OFFSET -0.000000 2.842763 -0.000000
												CHANNELS 3 Zrotation Yrotation Xrotation
												JOINT RightHandPinky4
												{
													OFFSET 0.000000 2.639709 0.000000
													CHANNELS 3 Zrotation Yrotation Xrotation
													End Site
													{
														OFFSET 0.000000 0.000000 0.000000
													}
												}
											}
										}
									}
									JOINT RightForeArmEnd
									{
										OFFSET 0.000000 0.000000 0.000000
										CHANNELS 3 Zrotation Yrotation Xrotation
										End Site
										{
											OFFSET 0.000000 0.000000 0.000000
										}
									}
								}
								JOINT RightArmEnd
								{
									OFFSET 0.000000 0.000000 0.000000
									CHANNELS 3 Zrotation Yrotation Xrotation
									End Site
									{
										OFFSET 0.000000 0.000000 0.000000
									}
								}
							}
						}
					}
					JOINT LeftShoulder
					{
						OFFSET 2.625389 11.175210 -0.000000
						CHANNELS 3 Zrotation Yrotation Xrotation
						JOINT LeftArm
						{
							OFFSET 0.000000 10.813635 0.000000
							CHANNELS 3 Zrotation Yrotation Xrotation
							JOINT LeftForeArm
							{
								OFFSET 0.000000 28.724781 -0.000000
								CHANNELS 3 Zrotation Yrotation Xrotation
								JOINT LeftHand
								{
									OFFSET 0.644384 25.716167 -0.328871
									CHANNELS 3 Zrotation Yrotation Xrotation
									JOINT LeftHandThumb1
									{
										OFFSET 2.867323 3.959563 2.944291
										CHANNELS 3 Zrotation Yrotation Xrotation
										JOINT LeftHandThumb2
										{
											OFFSET -0.000000 3.350399 -0.000000
											CHANNELS 3 Zrotation Yrotation Xrotation
											JOINT LeftHandThumb3
											{
												OFFSET -0.000000 3.756509 0.000000
												CHANNELS 3 Zrotation Yrotation Xrotation
												JOINT LeftHandThumb4
												{
													OFFSET 0.000000 3.100000 -0.000000
													CHANNELS 3 Zrotation Yrotation Xrotation
													End Site
													{
														OFFSET 0.000000 0.000000 0.000000
													}
												}
											}
										}
									}
									JOINT LeftHandIndex1
									{
										OFFSET 0.086752 10.030893 2.345280
										CHANNELS 3 Zrotation Yrotation Xrotation
										JOINT LeftHandIndex2
										{
											OFFSET 0.000000 4.061090 -0.000000
											CHANNELS 3 Zrotation Yrotation Xrotation
											JOINT LeftHandIndex3
											{
												OFFSET 0.000000 3.248873 -0.000000
												CHANNELS 3 Zrotation Yrotation Xrotation
												JOINT LeftHandIndex4
												{
													OFFSET -0.000000 2.639709 0.000000
													CHANNELS 3 Zrotation Yrotation Xrotation
													End Site
													{
														OFFSET 0.000000 0.000000 0.000000
													}
												}
											}
										}
									}
									JOINT LeftHandMiddle1
									{
										OFFSET -0.104102 9.502952 0.006768
										CHANNELS 3 Zrotation Yrotation Xrotation
										JOINT LeftHandMiddle2
										{
											OFFSET 0.000000 4.568727 -0.000000
											CHANNELS 3 Zrotation Yrotation Xrotation
											JOINT LeftHandMiddle3
											{
												OFFSET 0.000000 3.654981 -0.000000
												CHANNELS 3 Zrotation Yrotation Xrotation
												JOINT LeftHandMiddle4
												{
													OFFSET -0.000000 2.741236 0.000000
													CHANNELS 3 Zrotation Yrotation Xrotation
													End Site
													{
														OFFSET 0.000000 0.000000 0.000000
													}
												}
											}
										}
									}
									JOINT LeftHandRing1
									{
										OFFSET -0.086752 8.921708 -2.267442
										CHANNELS 3 Zrotation Yrotation Xrotation
										JOINT LeftHandRing2
										{
											OFFSET 0.000000 4.061090 -0.000000
											CHANNELS 3 Zrotation Yrotation Xrotation
											JOINT LeftHandRing3
											{
												OFFSET 0.000000 3.654981 -0.000000
												CHANNELS 3 Zrotation Yrotation Xrotation
												JOINT LeftHandRing4
												{
													OFFSET 0.000000 2.741236 0.000000
													CHANNELS 3 Zrotation Yrotation Xrotation
													End Site
													{
														OFFSET 0.000000 0.000000 0.000000
													}
												}
											}
										}
									}
									JOINT LeftHandPinky1
									{
										OFFSET 0.173504 7.976997 -4.467199
										CHANNELS 3 Zrotation Yrotation Xrotation
										JOINT LeftHandPinky2
										{
											OFFSET 0.000000 3.350399 -0.000000
											CHANNELS 3 Zrotation Yrotation Xrotation
											JOINT LeftHandPinky3
											{
												OFFSET -0.000000 2.842763 0.000000
												CHANNELS 3 Zrotation Yrotation Xrotation
												JOINT LeftHandPinky4
												{
													OFFSET 0.000000 2.639709 -0.000000
													CHANNELS 3 Zrotation Yrotation Xrotation
													End Site
													{
														OFFSET 0.000000 0.000000 0.000000
													}
												}
											}
										}
									}
									JOINT LeftForeArmEnd
									{
										OFFSET 0.000000 0.000000 0.000000
										CHANNELS 3 Zrotation Yrotation Xrotation
										End Site
										{
											OFFSET 0.000000 0.000000 0.000000
										}
									}
								}
								JOINT LeftArmEnd
								{
									OFFSET 0.000000 0.000000 0.000000
									CHANNELS 3 Zrotation Yrotation Xrotation
									End Site
									{
										OFFSET 0.000000 0.000000 0.000000
									}
								}
							}
						}
					}
				}
			}
		}
	}
	JOINT RightUpLeg
	{
		OFFSET -11.289943 -0.000000 0.000000
		CHANNELS 3 Zrotation Yrotation Xrotation
		JOINT RightLeg
		{
			OFFSET -0.000000 -38.200325 -0.000000
			CHANNELS 3 Zrotation Yrotation Xrotation
			JOINT RightFoot
			{
				OFFSET -0.000000 -39.900856 0.000000
				CHANNELS 3 Zrotation Yrotation Xrotation
				JOINT RightToeBase
				{
					OFFSET 0.000000 0.000000 15.261641
					CHANNELS 3 Zrotation Yrotation Xrotation
					JOINT RightToeBaseEnd
					{
						OFFSET 0.000000 -0.000000 7.370709
						CHANNELS 3 Zrotation Yrotation Xrotation
						End Site
						{
							OFFSET 0.000000 0.000000 0.000000
						}
					}
				}
				JOINT RightLegEnd
				{
					OFFSET 0.000000 0.000000 0.000000
					CHANNELS 3 Zrotation Yrotation Xrotation
					End Site
					{
						OFFSET 0.000000 0.000000 0.000000
					}
				}
			}
			JOINT RightUpLegEnd
			{
				OFFSET 0.000000 0.000000 0.000000
				CHANNELS 3 Zrotation Yrotation Xrotation
				End Site
				{
					OFFSET 0.000000 0.000000 0.000000
				}
			}
		}
	}
	JOINT LeftUpLeg
	{
		OFFSET 11.315661 0.000000 -0.000000
		CHANNELS 3 Zrotation Yrotation Xrotation
		JOINT LeftLeg
		{
			OFFSET -0.000000 -38.200325 0.000000
			CHANNELS 3 Zrotation Yrotation Xrotation
			JOINT LeftFoot
			{
				OFFSET -0.000000 -39.900856 0.000000
				CHANNELS 3 Zrotation Yrotation Xrotation
				JOINT LeftToeBase
				{
					OFFSET -0.000000 0.000000 15.261641
					CHANNELS 3 Zrotation Yrotation Xrotation
					JOINT LeftToeBaseEnd
					{
						OFFSET -0.000000 0.000000 7.539996
						CHANNELS 3 Zrotation Yrotation Xrotation
						End Site
						{
							OFFSET 0.000000 0.000000 0.000000
						}
					}
				}
				JOINT LeftLegEnd
				{
					OFFSET 0.000000 0.000000 0.000000
					CHANNELS 3 Zrotation Yrotation Xrotation
					End Site
					{
						OFFSET 0.000000 0.000000 0.000000
					}
				}
			}
			JOINT LeftUpLegEnd
			{
				OFFSET 0.000000 0.000000 0.000000
				CHANNELS 3 Zrotation Yrotation Xrotation
				End Site
				{
					OFFSET 0.000000 0.000000 0.000000
				}
			}
		}
	}
}
MOTION
Frames: 4
Frame Time: 0.016667
1.324476 86.935013 4.250773 -0.005520 -0.000820 -8.454336 -9.502729 2.132209 2.603971 23.001511 -7.753243 4.944421 -18.496262 2.613333 4.758206 6.376277 -2.118146 -0.085917 6.159887 1.680514 13.992615 -3.575328 1.129971 -5.854432 -0.653064 3.409355 -25.356731 0.000000 0.000000 0.000000 100.776543 -0.800587 3.953491 53.386036 -44.861557 2.161399 1.646132 15.969770 37.149387 2.687206 15.016356 -12.363097 9.441423 -1.728222 40.406590 0.000000 0.000000 -23.039999 0.000000 0.000000 -15.999999 0.000000 0.000000 0.000000 10.604505 0.000000 -9.643257 7.423153 0.000000 0.000000 7.423153 0.000000 0.000000 0.000000 0.000000 0.000000 11.399842 0.000000 -11.609115 7.979890 0.000000 0.000000 7.979890 0.000000 0.000000 0.000000 0.000000 0.000000 13.540874 0.000000 -12.430757 9.478612 0.000000 0.000000 9.478612 0.000000 0.000000 0.000000 0.000000 0.000000 14.975492 0.000000 -15.047190 10.482848 0.000000 0.000000 10.482848 0.000000 0.000000 0.000000 0.000000 0.000000 0.000000 0.000000 0.000000 0.000000 0.000000 0.000000 -95.208824 0.461970 4.229309 -60.893921 44.539249 -2.663038 -1.430935 -6.288035 50.052158 -2.959770 -13.881307 -14.714699 -8.844158 1.663611 40.678265 0.000000 0.000000 -21.599998 0.000000 0.000000 -15.000001 0.000000 0.000000 0.000000 -12.041668 0.000000 -12.461102 -8.429168 0.000000 0.000000 -8.429168 0.000000 0.000000 0.000000 0.000000 0.000000 -12.888119 -0.000000 -13.922879 -9.021683 0.000000 0.000000 -9.021683 0.000000 0.000000 0.000000 0.000000 0.000000 -15.009265 0.000000 -13.607731 -10.506484 0.000000 0.000000 -10.506484 0.000000 0.000000 0.000000 0.000000 0.000000 -16.041897 -0.000000 -13.917473 -11.229328 0.000000 0.000000 -11.229328 0.000000 0.000000 0.000000 0.000000 0.000000 0.000000 0.000000 0.000000 0.000000 0.000000 0.000000 -3.804071 -6.247012 10.866132 -0.277084 -1.224930 12.755727 -0.078077 -16.042011 13.849055 -0.819756 -0.598396 -27.499289 0.000000 0.000000 0.000000 0.000000 0.000000 0.000000 0.000000 0.000000 0.000000 6.390305 4.668367 7.751981 0.242041 1.004258 13.551477 -0.124300 2.065108 14.313011 0.291276 0.297029 -28.654657 0.000000 0.000000 0.000000 0.000000 0.000000 0.000000 0.000000 0.000000 0.000000 
1.306135 86.339355 4.524922 -0.355618 -0.292111 -10.368069 -1.386853 0.159632 6.372091 8.724727 -2.353951 1.649431 -8.095916 1.851575 9.491799 2.410300 -0.962674 -0.887429 7.263319 1.949219 12.800516 -2.873657 1.751529 -5.292036 -0.401703 3.293960 -24.473885 0.000000 0.000000 0.000000 99.663803 -1.548125 2.935965 58.882900 -42.298767 -0.181595 1.186413 18.064739 37.324238 1.382817 15.631948 -10.228449 9.307390 -1.720381 40.304867 -0.000000 0.000039 -22.991428 0.000001 0.000048 -15.854251 0.000001 -0.000006 -0.000030 9.291388 0.259461 -9.119709 7.116130 -0.057795 0.058133 7.181922 -0.025480 0.012077 -0.000020 0.000005 -0.000035 10.377211 0.085129 -11.276034 7.603725 -0.039023 0.026646 7.581121 -0.008246 0.027497 0.000032 0.000103 -0.000003 12.814810 -0.154011 -12.237417 9.092979 0.053963 -0.026930 9.034482 0.006699 -0.020947 -0.000024 0.000284 0.000015 14.264919 -0.425999 -14.973920 10.157896 0.111058 0.055190 10.098971 -0.010218 0.015785 -0.000132 -0.000005 0.000025 0.000000 0.000000 0.000000 0.000000 0.000000 0.000000 -93.334541 0.505750 4.902251 -58.262016 47.666786 0.509387 -1.834645 -8.956812 49.936527 -1.798317 -15.182838 -16.358242 -8.747885 1.635687 40.617661 0.000006 0.000035 -21.434984 -0.000041 -0.000035 -14.650396 -0.000244 -0.000001 -0.000762 -11.842027 0.284714 -12.257277 -7.953893 -0.012290 0.180588 -7.975657 0.027294 0.157509 0.000003 -0.000104 -0.000021 -12.722792 0.129445 -13.190471 -8.697193 -0.026976 0.054479 -8.380826 0.004575 0.042611 -0.001013 -0.000059 -0.000021 -15.005697 -0.113641 -12.109666 -10.194452 0.053234 -0.103045 -10.191493 -0.008544 -0.072674 0.000485 0.000008 0.000006 -16.653036 -0.418657 -12.066628 -11.253704 0.067118 -0.251102 -11.239143 -0.041547 -0.193419 -0.000764 0.000003 -0.000038 0.000000 0.000000 0.000000 0.000000 0.000000 0.000000 -4.141167 -6.466737 12.064286 -0.189320 -0.911223 12.691844 -0.440957 -14.375471 15.860739 -0.381424 -0.896111 -28.352283 0.000000 0.000000 0.000000 0.000000 0.000000 0.000000 0.000000 0.000000 0.000000 6.712473 4.448156 10.691259 0.212711 0.981482 11.697313 -0.227662 4.515661 15.817876 0.420653 0.141885 -27.817471 0.000000 0.000000 0.000000 0.000000 0.000000 0.000000 0.000000 0.000000 0.000000 
1.269241 86.307243 4.642380 -0.435880 -0.282713 -10.579951 -1.329783 0.162163 6.542970 8.596646 -2.338836 1.616823 -7.828732 1.738752 9.617631 2.396160 -0.975245 -0.854437 7.295204 1.934110 12.960128 -2.886667 1.740443 -5.194403 -0.396696 3.312367 -24.500986 0.000000 0.000000 0.000000 99.498398 -1.496370 2.955787 59.356834 -41.794430 -0.411464 1.214828 18.274746 37.678490 0.747237 15.981610 -10.524933 9.234463 -1.714231 40.344833 -0.000006 0.000050 -22.778450 0.000010 0.000039 -15.717931 0.000012 0.000001 -0.000042 8.880274 0.248634 -8.975871 6.950006 -0.061823 0.081504 7.014237 -0.030337 0.028998 -0.000008 0.000015 -0.000026 9.954722 0.080575 -11.157707 7.429350 -0.040030 0.031661 7.396731 -0.009430 0.031551 0.000032 0.000079 -0.000013 12.379146 -0.146806 -12.242432 8.925846 0.055098 -0.034744 8.864987 0.007854 -0.026322 -0.000026 0.000422 0.000010 13.940411 -0.399340 -15.065251 10.010681 0.111605 0.038017 9.956514 -0.005303 0.001020 -0.000202 -0.000000 0.000023 0.000000 0.000000 0.000000 0.000000 0.000000 0.000000 -93.309395 0.478812 4.857287 -58.392303 47.552464 0.429892 -1.824442 -8.749319 50.012764 -1.810202 -15.064581 -16.210798 -8.743788 1.631205 40.628151 0.000010 0.000041 -21.389748 -0.000047 -0.000036 -14.623140 -0.000191 0.000005 -0.000996 -11.787784 0.272367 -12.263225 -8.008782 -0.008847 0.185135 -8.037369 0.029526 0.158538 0.000014 -0.000077 -0.000020 -12.659659 0.123559 -13.232275 -8.740381 -0.025164 0.056442 -8.433719 0.005171 0.043653 -0.000943 -0.000063 -0.000044 -14.915865 -0.103059 -12.230470 -10.227642 0.049892 -0.104775 -10.215282 -0.009148 -0.075042 0.000498 0.000010 0.000008 -16.483101 -0.385144 -12.245689 -11.270504 0.058213 -0.257291 -11.237735 -0.045145 -0.200924 -0.000756 0.000009 -0.000048 0.000000 0.000000 0.000000 0.000000 0.000000 0.000000 -4.067188 -6.466103 12.369607 -0.185097 -0.921924 12.613000 -0.446072 -14.334958 15.777033 -0.379915 -0.878367 -28.352423 0.000000 0.000000 0.000000 0.000000 0.000000 0.000000 0.000000 0.000000 0.000000 6.900516 4.649264 11.084147 0.209159 0.977281 11.511106 -0.289133 4.277555 15.663354 0.421227 0.137173 -27.803078 0.000000 0.000000 0.000000 0.000000 0.000000 0.000000 0.000000 0.000000 0.000000 
1.245491 86.284058 4.768143 -0.479415 -0.322895 -10.728788 -1.291156 0.165386 6.657887 8.474745 -2.318774 1.484013 -7.585463 1.648119 9.806222 2.379966 -0.980714 -0.873970 7.318460 1.925896 12.960700 -2.890489 1.738833 -5.194494 -0.386020 3.319726 -24.486864 0.000000 0.000000 0.000000 99.435242 -1.463313 2.984949 59.707794 -41.513279 -0.597402 1.248565 18.477177 37.629650 0.400768 16.209965 -10.607274 9.198742 -1.709885 40.367168 -0.000006 0.000050 -22.672871 0.000009 0.000042 -15.648768 0.000012 0.000001 -0.000042 8.623539 0.243051 -8.891069 6.864732 -0.062477 0.090957 6.930918 -0.031300 0.034231 -0.000008 0.000013 -0.000025 9.693643 0.078248 -11.076403 7.349030 -0.039697 0.031718 7.311355 -0.009343 0.031372 0.000031 0.000070 -0.000013 12.101342 -0.142901 -12.225305 8.841700 0.053909 -0.033544 8.780318 0.007278 -0.024894 -0.000024 0.000522 0.000011 13.706067 -0.384665 -15.092626 9.924990 0.107321 0.047450 9.874506 -0.007305 0.008693 -0.000281 -0.000001 0.000012 0.000000 0.000000 0.000000 0.000000 0.000000 0.000000 -93.315567 0.484903 4.841773 -58.363670 47.549652 0.400474 -1.816750 -8.625278 50.049786 -1.929235 -14.887442 -16.014870 -8.752399 1.629618 40.627663 0.000009 0.000042 -21.402237 -0.000048 -0.000036 -14.637851 -0.000150 0.000004 -0.001181 -11.830732 0.263694 -12.191378 -8.074537 -0.005621 0.192090 -8.109327 0.031968 0.162251 0.000013 -0.000072 -0.000020 -12.700904 0.120538 -13.193370 -8.792254 -0.023647 0.059687 -8.496586 0.005895 0.045904 -0.001008 -0.000066 -0.000060 -14.909148 -0.096751 -12.262723 -10.248853 0.047358 -0.107899 -10.234386 -0.010041 -0.077956 0.000589 0.000010 0.000008 -16.378208 -0.367340 -12.320426 -11.246562 0.051402 -0.264955 -11.217763 -0.048757 -0.209560 -0.000766 0.000009 -0.000049 0.000000 0.000000 0.000000 0.000000 0.000000 0.000000 -4.001008 -6.412799 12.643682 -0.183021 -0.930966 12.518108 -0.460388 -14.308331 15.676062 -0.387774 -0.865454 -28.305338 0.000000 0.000000 0.000000 0.000000 0.000000 0.000000 0.000000 0.000000 0.000000 7.016035 4.785541 11.403765 0.206835 0.974854 11.389918 -0.346575 4.208220 15.508741 0.419408 0.136750 -27.756577 0.000000 0.000000 0.000000 0.000000 0.000000 0.000000 0.000000 0.000000 0.000000 
